# MagicaVoxel @ Ephtracy

# group
o 

# material
mtllib puska3-2.mtl
usemtl palette

# normals
vn -1 0 0
vn 1 0 0
vn 0 0 1
vn 0 0 -1
vn 0 -1 0
vn 0 1 0

# texcoords
vt 0.912109 0.5
vt 0.974609 0.5

# verts
v -5.1 1.1 -2.2
v -5.1 1.1 -2.3
v -5.1 1.2 -2.2
v -5.1 1.2 -2.3
v -4.3 1.1 -2.1
v -4.3 1.1 -2.4
v -4.3 1.2 -2.1
v -4.3 1.2 -2.4
v -4.2 1 -2.1
v -4.2 1 -2.4
v -4.2 1.1 -2
v -4.2 1.1 -2.1
v -4.2 1.1 -2.4
v -4.2 1.1 -2.5
v -4.2 1.2 -2
v -4.2 1.2 -2.1
v -4.2 1.2 -2.4
v -4.2 1.2 -2.5
v -4.2 1.3 -2.1
v -4.2 1.3 -2.4
v -4.1 0.9 -2.1
v -4.1 0.9 -2.4
v -4.1 1 -2
v -4.1 1 -2.1
v -4.1 1 -2.4
v -4.1 1 -2.5
v -4.1 1.1 -1.9
v -4.1 1.1 -2
v -4.1 1.1 -2.1
v -4.1 1.1 -2.4
v -4.1 1.1 -2.5
v -4.1 1.1 -2.6
v -4.1 1.2 -1.9
v -4.1 1.2 -2
v -4.1 1.2 -2.1
v -4.1 1.2 -2.4
v -4.1 1.2 -2.5
v -4.1 1.2 -2.6
v -4.1 1.3 -2
v -4.1 1.3 -2.1
v -4.1 1.3 -2.4
v -4.1 1.3 -2.5
v -4.1 1.4 -2.1
v -4.1 1.4 -2.4
v -4 0.8 -2.2
v -4 0.8 -2.3
v -4 0.9 -2.2
v -4 0.9 -2.3
v -4 1.4 -2.2
v -4 1.4 -2.3
v -4 1.5 -2.2
v -4 1.5 -2.3
v -3.9 0.9 -2.2
v -3.9 0.9 -2.3
v -3.9 1 -2.2
v -3.9 1 -2.3
v -3.8 1 -2.1
v -3.8 1 -2.4
v -3.8 1.3 -2.1
v -3.8 1.3 -2.4
v -3.3 0.9 -2.1
v -3.3 0.9 -2.4
v -3.3 1 -2
v -3.3 1 -2.1
v -3.3 1 -2.4
v -3.3 1 -2.5
v -3.3 1.3 -2
v -3.3 1.3 -2.1
v -3.3 1.3 -2.4
v -3.3 1.3 -2.5
v -3.3 1.4 -2.1
v -3.3 1.4 -2.4
v -3.1 0.9 -2
v -3.1 0.9 -2.1
v -3.1 0.9 -2.4
v -3.1 0.9 -2.5
v -3.1 1 -1.9
v -3.1 1 -2
v -3.1 1 -2.1
v -3.1 1 -2.4
v -3.1 1 -2.5
v -3.1 1 -2.6
v -3.1 1.3 -1.9
v -3.1 1.3 -2
v -3.1 1.3 -2.1
v -3.1 1.3 -2.4
v -3.1 1.3 -2.5
v -3.1 1.3 -2.6
v -3.1 1.4 -2
v -3.1 1.4 -2.1
v -3.1 1.4 -2.2
v -3.1 1.4 -2.3
v -3.1 1.4 -2.4
v -3.1 1.4 -2.5
v -3.1 1.5 -2.2
v -3.1 1.5 -2.3
v -2.1 1 -2
v -2.1 1 -2.1
v -2.1 1 -2.4
v -2.1 1 -2.5
v -2.1 1.3 -2
v -2.1 1.3 -2.1
v -2.1 1.3 -2.4
v -2.1 1.3 -2.5
v -2 1 -2.1
v -2 1 -2.4
v -2 1.1 -2.2
v -2 1.1 -2.3
v -2 1.2 -2.2
v -2 1.2 -2.3
v -2 1.3 -2.1
v -2 1.3 -2.2
v -2 1.3 -2.3
v -2 1.3 -2.4
v -1.4 1.1 -2.2
v -1.4 1.1 -2.3
v -1.4 1.2 -2.2
v -1.4 1.2 -2.3
v -5 1.1 -2.2
v -5 1.1 -2.3
v -5 1.2 -2.2
v -5 1.2 -2.3
v -4.1 1 -2.1
v -4.1 1 -2.4
v -4.1 1.3 -2.1
v -4.1 1.3 -2.4
v -4 0.9 -2.2
v -4 0.9 -2.3
v -4 1 -2.2
v -4 1 -2.3
v -3.9 0.8 -2.2
v -3.9 0.8 -2.3
v -3.9 0.9 -2.2
v -3.9 0.9 -2.3
v -3.9 1.4 -2.2
v -3.9 1.4 -2.3
v -3.9 1.5 -2.2
v -3.9 1.5 -2.3
v -3.8 0.9 -2.1
v -3.8 0.9 -2.4
v -3.8 1 -2
v -3.8 1 -2.1
v -3.8 1 -2.4
v -3.8 1 -2.5
v -3.8 1.1 -1.9
v -3.8 1.1 -2
v -3.8 1.1 -2.1
v -3.8 1.1 -2.4
v -3.8 1.1 -2.5
v -3.8 1.1 -2.6
v -3.8 1.2 -1.9
v -3.8 1.2 -2
v -3.8 1.2 -2.1
v -3.8 1.2 -2.4
v -3.8 1.2 -2.5
v -3.8 1.2 -2.6
v -3.8 1.3 -2
v -3.8 1.3 -2.1
v -3.8 1.3 -2.4
v -3.8 1.3 -2.5
v -3.8 1.4 -2.1
v -3.8 1.4 -2.4
v -3.7 1 -2.1
v -3.7 1 -2.4
v -3.7 1.1 -2
v -3.7 1.1 -2.1
v -3.7 1.1 -2.4
v -3.7 1.1 -2.5
v -3.7 1.2 -2
v -3.7 1.2 -2.1
v -3.7 1.2 -2.4
v -3.7 1.2 -2.5
v -3.7 1.3 -2.1
v -3.7 1.3 -2.4
v -3.6 1.1 -2.1
v -3.6 1.1 -2.4
v -3.6 1.2 -2.1
v -3.6 1.2 -2.4
v -3.2 1 -2.1
v -3.2 1 -2.4
v -3.2 1.3 -2.1
v -3.2 1.3 -2.4
v -3.1 1 -2
v -3.1 1 -2.1
v -3.1 1 -2.4
v -3.1 1 -2.5
v -3.1 1.3 -2
v -3.1 1.3 -2.1
v -3.1 1.3 -2.2
v -3.1 1.3 -2.3
v -3.1 1.3 -2.4
v -3.1 1.3 -2.5
v -3.1 1.4 -2.2
v -3.1 1.4 -2.3
v -2 0.9 -2
v -2 0.9 -2.5
v -2 1 -1.9
v -2 1 -2
v -2 1 -2.1
v -2 1 -2.4
v -2 1 -2.5
v -2 1 -2.6
v -2 1.3 -1.9
v -2 1.3 -2
v -2 1.3 -2.1
v -2 1.3 -2.2
v -2 1.3 -2.3
v -2 1.3 -2.4
v -2 1.3 -2.5
v -2 1.3 -2.6
v -2 1.4 -2
v -2 1.4 -2.2
v -2 1.4 -2.3
v -2 1.4 -2.5
v -2 1.5 -2.2
v -2 1.5 -2.3
v -1.9 1 -2.1
v -1.9 1 -2.2
v -1.9 1 -2.3
v -1.9 1 -2.4
v -1.9 1.1 -2.1
v -1.9 1.1 -2.2
v -1.9 1.1 -2.3
v -1.9 1.1 -2.4
v -1.9 1.2 -2.1
v -1.9 1.2 -2.2
v -1.9 1.2 -2.3
v -1.9 1.2 -2.4
v -1.9 1.3 -2.1
v -1.9 1.3 -2.2
v -1.9 1.3 -2.3
v -1.9 1.3 -2.4
v -1.4 1 -2.2
v -1.4 1 -2.3
v -1.4 1.1 -2.1
v -1.4 1.1 -2.2
v -1.4 1.1 -2.3
v -1.4 1.1 -2.4
v -1.4 1.2 -2.1
v -1.4 1.2 -2.2
v -1.4 1.2 -2.3
v -1.4 1.2 -2.4
v -1.4 1.3 -2.2
v -1.4 1.3 -2.3
v -1.3 1.1 -2.2
v -1.3 1.1 -2.3
v -1.3 1.2 -2.2
v -1.3 1.2 -2.3
v -4.1 1.1 -1.9
v -4.1 1.2 -1.9
v -3.8 1.1 -1.9
v -3.8 1.2 -1.9
v -3.1 1 -1.9
v -3.1 1.3 -1.9
v -2 1 -1.9
v -2 1.3 -1.9
v -4.2 1.1 -2
v -4.2 1.2 -2
v -4.1 1 -2
v -4.1 1.1 -2
v -4.1 1.2 -2
v -4.1 1.3 -2
v -3.8 1 -2
v -3.8 1.1 -2
v -3.8 1.2 -2
v -3.8 1.3 -2
v -3.7 1.1 -2
v -3.7 1.2 -2
v -3.3 1 -2
v -3.3 1.3 -2
v -3.1 0.9 -2
v -3.1 1 -2
v -3.1 1.3 -2
v -3.1 1.4 -2
v -2 0.9 -2
v -2 1 -2
v -2 1.3 -2
v -2 1.4 -2
v -4.3 1.1 -2.1
v -4.3 1.2 -2.1
v -4.2 1 -2.1
v -4.2 1.1 -2.1
v -4.2 1.2 -2.1
v -4.2 1.3 -2.1
v -4.1 0.9 -2.1
v -4.1 1 -2.1
v -4.1 1.1 -2.1
v -4.1 1.2 -2.1
v -4.1 1.3 -2.1
v -4.1 1.4 -2.1
v -3.8 0.9 -2.1
v -3.8 1 -2.1
v -3.8 1.1 -2.1
v -3.8 1.2 -2.1
v -3.8 1.3 -2.1
v -3.8 1.4 -2.1
v -3.7 1 -2.1
v -3.7 1.1 -2.1
v -3.7 1.2 -2.1
v -3.7 1.3 -2.1
v -3.6 1.1 -2.1
v -3.6 1.2 -2.1
v -3.3 0.9 -2.1
v -3.3 1 -2.1
v -3.3 1.3 -2.1
v -3.3 1.4 -2.1
v -3.1 0.9 -2.1
v -3.1 1 -2.1
v -3.1 1.3 -2.1
v -3.1 1.4 -2.1
v -2 1 -2.1
v -2 1.3 -2.1
v -1.9 1 -2.1
v -1.9 1.1 -2.1
v -1.9 1.2 -2.1
v -1.9 1.3 -2.1
v -1.4 1.1 -2.1
v -1.4 1.2 -2.1
v -5.1 1.1 -2.2
v -5.1 1.2 -2.2
v -5 1.1 -2.2
v -5 1.2 -2.2
v -4 0.8 -2.2
v -4 0.9 -2.2
v -4 1.4 -2.2
v -4 1.5 -2.2
v -3.9 0.8 -2.2
v -3.9 0.9 -2.2
v -3.9 1.4 -2.2
v -3.9 1.5 -2.2
v -3.1 1.4 -2.2
v -3.1 1.5 -2.2
v -2 1.4 -2.2
v -2 1.5 -2.2
v -1.9 1 -2.2
v -1.9 1.1 -2.2
v -1.9 1.2 -2.2
v -1.9 1.3 -2.2
v -1.4 1 -2.2
v -1.4 1.1 -2.2
v -1.4 1.2 -2.2
v -1.4 1.3 -2.2
v -1.3 1.1 -2.2
v -1.3 1.2 -2.2
v -4 0.9 -2.3
v -4 1 -2.3
v -3.9 0.9 -2.3
v -3.9 1 -2.3
v -3.1 1.3 -2.3
v -3.1 1.4 -2.3
v -2 1.1 -2.3
v -2 1.2 -2.3
v -2 1.3 -2.3
v -2 1.4 -2.3
v -1.4 1.1 -2.3
v -1.4 1.2 -2.3
v -4.1 1 -2.4
v -4.1 1.3 -2.4
v -3.8 1 -2.4
v -3.8 1.3 -2.4
v -3.2 1 -2.4
v -3.2 1.3 -2.4
v -3.1 1 -2.4
v -3.1 1.3 -2.4
v -2.1 1 -2.4
v -2.1 1.3 -2.4
v -2 1 -2.4
v -2 1.3 -2.4
v -3.1 1 -2.5
v -3.1 1.3 -2.5
v -2.1 1 -2.5
v -2.1 1.3 -2.5
v -3.1 1 -2
v -3.1 1.3 -2
v -2.1 1 -2
v -2.1 1.3 -2
v -4.1 1 -2.1
v -4.1 1.3 -2.1
v -3.8 1 -2.1
v -3.8 1.3 -2.1
v -3.2 1 -2.1
v -3.2 1.3 -2.1
v -3.1 1 -2.1
v -3.1 1.3 -2.1
v -2.1 1 -2.1
v -2.1 1.3 -2.1
v -2 1 -2.1
v -2 1.3 -2.1
v -4 0.9 -2.2
v -4 1 -2.2
v -3.9 0.9 -2.2
v -3.9 1 -2.2
v -3.1 1.3 -2.2
v -3.1 1.4 -2.2
v -2 1.1 -2.2
v -2 1.2 -2.2
v -2 1.3 -2.2
v -2 1.4 -2.2
v -1.4 1.1 -2.2
v -1.4 1.2 -2.2
v -5.1 1.1 -2.3
v -5.1 1.2 -2.3
v -5 1.1 -2.3
v -5 1.2 -2.3
v -4 0.8 -2.3
v -4 0.9 -2.3
v -4 1.4 -2.3
v -4 1.5 -2.3
v -3.9 0.8 -2.3
v -3.9 0.9 -2.3
v -3.9 1.4 -2.3
v -3.9 1.5 -2.3
v -3.1 1.4 -2.3
v -3.1 1.5 -2.3
v -2 1.4 -2.3
v -2 1.5 -2.3
v -1.9 1 -2.3
v -1.9 1.1 -2.3
v -1.9 1.2 -2.3
v -1.9 1.3 -2.3
v -1.4 1 -2.3
v -1.4 1.1 -2.3
v -1.4 1.2 -2.3
v -1.4 1.3 -2.3
v -1.3 1.1 -2.3
v -1.3 1.2 -2.3
v -4.3 1.1 -2.4
v -4.3 1.2 -2.4
v -4.2 1 -2.4
v -4.2 1.1 -2.4
v -4.2 1.2 -2.4
v -4.2 1.3 -2.4
v -4.1 0.9 -2.4
v -4.1 1 -2.4
v -4.1 1.1 -2.4
v -4.1 1.2 -2.4
v -4.1 1.3 -2.4
v -4.1 1.4 -2.4
v -3.8 0.9 -2.4
v -3.8 1 -2.4
v -3.8 1.1 -2.4
v -3.8 1.2 -2.4
v -3.8 1.3 -2.4
v -3.8 1.4 -2.4
v -3.7 1 -2.4
v -3.7 1.1 -2.4
v -3.7 1.2 -2.4
v -3.7 1.3 -2.4
v -3.6 1.1 -2.4
v -3.6 1.2 -2.4
v -3.3 0.9 -2.4
v -3.3 1 -2.4
v -3.3 1.3 -2.4
v -3.3 1.4 -2.4
v -3.1 0.9 -2.4
v -3.1 1 -2.4
v -3.1 1.3 -2.4
v -3.1 1.4 -2.4
v -2 1 -2.4
v -2 1.3 -2.4
v -1.9 1 -2.4
v -1.9 1.1 -2.4
v -1.9 1.2 -2.4
v -1.9 1.3 -2.4
v -1.4 1.1 -2.4
v -1.4 1.2 -2.4
v -4.2 1.1 -2.5
v -4.2 1.2 -2.5
v -4.1 1 -2.5
v -4.1 1.1 -2.5
v -4.1 1.2 -2.5
v -4.1 1.3 -2.5
v -3.8 1 -2.5
v -3.8 1.1 -2.5
v -3.8 1.2 -2.5
v -3.8 1.3 -2.5
v -3.7 1.1 -2.5
v -3.7 1.2 -2.5
v -3.3 1 -2.5
v -3.3 1.3 -2.5
v -3.1 0.9 -2.5
v -3.1 1 -2.5
v -3.1 1.3 -2.5
v -3.1 1.4 -2.5
v -2 0.9 -2.5
v -2 1 -2.5
v -2 1.3 -2.5
v -2 1.4 -2.5
v -4.1 1.1 -2.6
v -4.1 1.2 -2.6
v -3.8 1.1 -2.6
v -3.8 1.2 -2.6
v -3.1 1 -2.6
v -3.1 1.3 -2.6
v -2 1 -2.6
v -2 1.3 -2.6
v -4 0.8 -2.2
v -3.9 0.8 -2.2
v -4 0.8 -2.3
v -3.9 0.8 -2.3
v -3.1 0.9 -2
v -2 0.9 -2
v -4.1 0.9 -2.1
v -3.8 0.9 -2.1
v -3.3 0.9 -2.1
v -3.1 0.9 -2.1
v -4 0.9 -2.2
v -3.9 0.9 -2.2
v -4 0.9 -2.3
v -3.9 0.9 -2.3
v -4.1 0.9 -2.4
v -3.8 0.9 -2.4
v -3.3 0.9 -2.4
v -3.1 0.9 -2.4
v -3.1 0.9 -2.5
v -2 0.9 -2.5
v -3.1 1 -1.9
v -2 1 -1.9
v -4.1 1 -2
v -3.8 1 -2
v -3.3 1 -2
v -3.1 1 -2
v -2 1 -2
v -4.2 1 -2.1
v -4.1 1 -2.1
v -3.8 1 -2.1
v -3.7 1 -2.1
v -3.3 1 -2.1
v -3.1 1 -2.1
v -2 1 -2.1
v -1.9 1 -2.1
v -1.9 1 -2.2
v -1.4 1 -2.2
v -1.9 1 -2.3
v -1.4 1 -2.3
v -4.2 1 -2.4
v -4.1 1 -2.4
v -3.8 1 -2.4
v -3.7 1 -2.4
v -3.3 1 -2.4
v -3.1 1 -2.4
v -2 1 -2.4
v -1.9 1 -2.4
v -4.1 1 -2.5
v -3.8 1 -2.5
v -3.3 1 -2.5
v -3.1 1 -2.5
v -2 1 -2.5
v -3.1 1 -2.6
v -2 1 -2.6
v -4.1 1.1 -1.9
v -3.8 1.1 -1.9
v -4.2 1.1 -2
v -4.1 1.1 -2
v -3.8 1.1 -2
v -3.7 1.1 -2
v -4.3 1.1 -2.1
v -4.2 1.1 -2.1
v -4.1 1.1 -2.1
v -3.8 1.1 -2.1
v -3.7 1.1 -2.1
v -3.6 1.1 -2.1
v -1.9 1.1 -2.1
v -1.4 1.1 -2.1
v -5.1 1.1 -2.2
v -5 1.1 -2.2
v -1.9 1.1 -2.2
v -1.4 1.1 -2.2
v -1.3 1.1 -2.2
v -5.1 1.1 -2.3
v -5 1.1 -2.3
v -1.9 1.1 -2.3
v -1.4 1.1 -2.3
v -1.3 1.1 -2.3
v -4.3 1.1 -2.4
v -4.2 1.1 -2.4
v -4.1 1.1 -2.4
v -3.8 1.1 -2.4
v -3.7 1.1 -2.4
v -3.6 1.1 -2.4
v -1.9 1.1 -2.4
v -1.4 1.1 -2.4
v -4.2 1.1 -2.5
v -4.1 1.1 -2.5
v -3.8 1.1 -2.5
v -3.7 1.1 -2.5
v -4.1 1.1 -2.6
v -3.8 1.1 -2.6
v -2 1.2 -2.2
v -1.4 1.2 -2.2
v -2 1.2 -2.3
v -1.4 1.2 -2.3
v -3.1 1.3 -2
v -2.1 1.3 -2
v -4.1 1.3 -2.1
v -3.8 1.3 -2.1
v -3.2 1.3 -2.1
v -3.1 1.3 -2.1
v -2.1 1.3 -2.1
v -2 1.3 -2.1
v -3.1 1.3 -2.2
v -2 1.3 -2.2
v -3.1 1.3 -2.3
v -2 1.3 -2.3
v -4.1 1.3 -2.4
v -3.8 1.3 -2.4
v -3.2 1.3 -2.4
v -3.1 1.3 -2.4
v -2.1 1.3 -2.4
v -2 1.3 -2.4
v -3.1 1.3 -2.5
v -2.1 1.3 -2.5
v -3.1 1.4 -2.2
v -2 1.4 -2.2
v -3.1 1.4 -2.3
v -2 1.4 -2.3
v -4 0.9 -2.2
v -3.9 0.9 -2.2
v -4 0.9 -2.3
v -3.9 0.9 -2.3
v -3.1 1 -2
v -2.1 1 -2
v -4.1 1 -2.1
v -3.8 1 -2.1
v -3.2 1 -2.1
v -3.1 1 -2.1
v -2.1 1 -2.1
v -2 1 -2.1
v -4 1 -2.2
v -3.9 1 -2.2
v -4 1 -2.3
v -3.9 1 -2.3
v -4.1 1 -2.4
v -3.8 1 -2.4
v -3.2 1 -2.4
v -3.1 1 -2.4
v -2.1 1 -2.4
v -2 1 -2.4
v -3.1 1 -2.5
v -2.1 1 -2.5
v -2 1.1 -2.2
v -1.4 1.1 -2.2
v -2 1.1 -2.3
v -1.4 1.1 -2.3
v -4.1 1.2 -1.9
v -3.8 1.2 -1.9
v -4.2 1.2 -2
v -4.1 1.2 -2
v -3.8 1.2 -2
v -3.7 1.2 -2
v -4.3 1.2 -2.1
v -4.2 1.2 -2.1
v -4.1 1.2 -2.1
v -3.8 1.2 -2.1
v -3.7 1.2 -2.1
v -3.6 1.2 -2.1
v -1.9 1.2 -2.1
v -1.4 1.2 -2.1
v -5.1 1.2 -2.2
v -5 1.2 -2.2
v -1.9 1.2 -2.2
v -1.4 1.2 -2.2
v -1.3 1.2 -2.2
v -5.1 1.2 -2.3
v -5 1.2 -2.3
v -1.9 1.2 -2.3
v -1.4 1.2 -2.3
v -1.3 1.2 -2.3
v -4.3 1.2 -2.4
v -4.2 1.2 -2.4
v -4.1 1.2 -2.4
v -3.8 1.2 -2.4
v -3.7 1.2 -2.4
v -3.6 1.2 -2.4
v -1.9 1.2 -2.4
v -1.4 1.2 -2.4
v -4.2 1.2 -2.5
v -4.1 1.2 -2.5
v -3.8 1.2 -2.5
v -3.7 1.2 -2.5
v -4.1 1.2 -2.6
v -3.8 1.2 -2.6
v -3.1 1.3 -1.9
v -2 1.3 -1.9
v -4.1 1.3 -2
v -3.8 1.3 -2
v -3.3 1.3 -2
v -3.1 1.3 -2
v -2 1.3 -2
v -4.2 1.3 -2.1
v -4.1 1.3 -2.1
v -3.8 1.3 -2.1
v -3.7 1.3 -2.1
v -3.3 1.3 -2.1
v -3.1 1.3 -2.1
v -2 1.3 -2.1
v -1.9 1.3 -2.1
v -2 1.3 -2.2
v -1.9 1.3 -2.2
v -1.4 1.3 -2.2
v -2 1.3 -2.3
v -1.9 1.3 -2.3
v -1.4 1.3 -2.3
v -4.2 1.3 -2.4
v -4.1 1.3 -2.4
v -3.8 1.3 -2.4
v -3.7 1.3 -2.4
v -3.3 1.3 -2.4
v -3.1 1.3 -2.4
v -2 1.3 -2.4
v -1.9 1.3 -2.4
v -4.1 1.3 -2.5
v -3.8 1.3 -2.5
v -3.3 1.3 -2.5
v -3.1 1.3 -2.5
v -2 1.3 -2.5
v -3.1 1.3 -2.6
v -2 1.3 -2.6
v -3.1 1.4 -2
v -2 1.4 -2
v -4.1 1.4 -2.1
v -3.8 1.4 -2.1
v -3.3 1.4 -2.1
v -3.1 1.4 -2.1
v -4 1.4 -2.2
v -3.9 1.4 -2.2
v -3.1 1.4 -2.2
v -2 1.4 -2.2
v -4 1.4 -2.3
v -3.9 1.4 -2.3
v -3.1 1.4 -2.3
v -2 1.4 -2.3
v -4.1 1.4 -2.4
v -3.8 1.4 -2.4
v -3.3 1.4 -2.4
v -3.1 1.4 -2.4
v -3.1 1.4 -2.5
v -2 1.4 -2.5
v -4 1.5 -2.2
v -3.9 1.5 -2.2
v -3.1 1.5 -2.2
v -2 1.5 -2.2
v -4 1.5 -2.3
v -3.9 1.5 -2.3
v -3.1 1.5 -2.3
v -2 1.5 -2.3

# faces
f 3/1/1 2/1/1 1/1/1
f 4/1/1 2/1/1 3/1/1
f 7/1/1 6/1/1 5/1/1
f 8/1/1 6/1/1 7/1/1
f 12/1/1 10/1/1 9/1/1
f 13/1/1 10/1/1 12/1/1
f 15/1/1 12/1/1 11/1/1
f 16/1/1 12/1/1 15/1/1
f 17/1/1 14/1/1 13/1/1
f 18/1/1 14/1/1 17/1/1
f 19/1/1 17/1/1 16/1/1
f 20/1/1 17/1/1 19/1/1
f 24/1/1 22/1/1 21/1/1
f 25/1/1 22/1/1 24/1/1
f 28/1/1 24/1/1 23/1/1
f 29/1/1 24/1/1 28/1/1
f 30/1/1 26/1/1 25/1/1
f 31/1/1 26/1/1 30/1/1
f 33/1/1 28/1/1 27/1/1
f 34/1/1 28/1/1 33/1/1
f 37/1/1 32/1/1 31/1/1
f 38/1/1 32/1/1 37/1/1
f 39/1/1 35/1/1 34/1/1
f 40/1/1 35/1/1 39/1/1
f 41/1/1 37/1/1 36/1/1
f 42/1/1 37/1/1 41/1/1
f 43/1/1 41/1/1 40/1/1
f 44/1/1 41/1/1 43/1/1
f 47/1/1 46/1/1 45/1/1
f 48/1/1 46/1/1 47/1/1
f 51/1/1 50/1/1 49/1/1
f 52/1/1 50/1/1 51/1/1
f 55/1/1 54/1/1 53/1/1
f 56/1/1 54/1/1 55/1/1
f 59/1/1 58/1/1 57/1/1
f 60/1/1 58/1/1 59/1/1
f 64/2/1 62/2/1 61/2/1
f 65/2/1 62/2/1 64/2/1
f 67/2/1 64/2/1 63/2/1
f 67/2/1 66/2/1 65/2/1
f 67/2/1 65/2/1 64/2/1
f 68/2/1 66/2/1 67/2/1
f 69/2/1 66/2/1 68/2/1
f 70/2/1 66/2/1 69/2/1
f 71/2/1 69/2/1 68/2/1
f 72/2/1 69/2/1 71/2/1
f 78/2/1 74/2/1 73/2/1
f 79/2/1 74/2/1 78/2/1
f 80/2/1 76/2/1 75/2/1
f 81/2/1 76/2/1 80/2/1
f 83/2/1 78/2/1 77/2/1
f 84/2/1 78/2/1 83/2/1
f 87/2/1 82/2/1 81/2/1
f 88/2/1 82/2/1 87/2/1
f 89/2/1 85/2/1 84/2/1
f 90/2/1 85/2/1 89/2/1
f 93/2/1 87/2/1 86/2/1
f 94/2/1 87/2/1 93/2/1
f 95/2/1 92/2/1 91/2/1
f 96/2/1 92/2/1 95/2/1
f 101/2/1 98/2/1 97/2/1
f 102/2/1 98/2/1 101/2/1
f 103/2/1 100/2/1 99/2/1
f 104/2/1 100/2/1 103/2/1
f 107/2/1 106/2/1 105/2/1
f 108/2/1 106/2/1 107/2/1
f 109/2/1 107/2/1 105/2/1
f 110/2/1 106/2/1 108/2/1
f 111/2/1 109/2/1 105/2/1
f 111/2/1 110/2/1 109/2/1
f 112/2/1 110/2/1 111/2/1
f 113/2/1 106/2/1 110/2/1
f 113/2/1 110/2/1 112/2/1
f 114/2/1 106/2/1 113/2/1
f 117/2/1 116/2/1 115/2/1
f 118/2/1 116/2/1 117/2/1
f 119/1/2 120/1/2 121/1/2
f 121/1/2 120/1/2 122/1/2
f 123/1/2 124/1/2 125/1/2
f 125/1/2 124/1/2 126/1/2
f 127/1/2 128/1/2 129/1/2
f 129/1/2 128/1/2 130/1/2
f 131/1/2 132/1/2 133/1/2
f 133/1/2 132/1/2 134/1/2
f 135/1/2 136/1/2 137/1/2
f 137/1/2 136/1/2 138/1/2
f 139/1/2 140/1/2 142/1/2
f 142/1/2 140/1/2 143/1/2
f 141/1/2 142/1/2 146/1/2
f 146/1/2 142/1/2 147/1/2
f 143/1/2 144/1/2 148/1/2
f 148/1/2 144/1/2 149/1/2
f 145/1/2 146/1/2 151/1/2
f 151/1/2 146/1/2 152/1/2
f 149/1/2 150/1/2 155/1/2
f 155/1/2 150/1/2 156/1/2
f 152/1/2 153/1/2 157/1/2
f 157/1/2 153/1/2 158/1/2
f 154/1/2 155/1/2 159/1/2
f 159/1/2 155/1/2 160/1/2
f 158/1/2 159/1/2 161/1/2
f 161/1/2 159/1/2 162/1/2
f 163/1/2 164/1/2 166/1/2
f 166/1/2 164/1/2 167/1/2
f 165/1/2 166/1/2 169/1/2
f 169/1/2 166/1/2 170/1/2
f 167/1/2 168/1/2 171/1/2
f 171/1/2 168/1/2 172/1/2
f 170/1/2 171/1/2 173/1/2
f 173/1/2 171/1/2 174/1/2
f 175/1/2 176/1/2 177/1/2
f 177/1/2 176/1/2 178/1/2
f 179/2/2 180/2/2 181/2/2
f 181/2/2 180/2/2 182/2/2
f 183/2/2 184/2/2 187/2/2
f 187/2/2 184/2/2 188/2/2
f 185/2/2 186/2/2 191/2/2
f 191/2/2 186/2/2 192/2/2
f 189/2/2 190/2/2 193/2/2
f 193/2/2 190/2/2 194/2/2
f 195/2/2 196/2/2 198/2/2
f 198/2/2 196/2/2 199/2/2
f 199/2/2 196/2/2 200/2/2
f 200/2/2 196/2/2 201/2/2
f 197/2/2 198/2/2 203/2/2
f 198/2/2 199/2/2 203/2/2
f 203/2/2 199/2/2 204/2/2
f 204/2/2 199/2/2 205/2/2
f 201/2/2 202/2/2 208/2/2
f 200/2/2 201/2/2 208/2/2
f 208/2/2 202/2/2 209/2/2
f 209/2/2 202/2/2 210/2/2
f 205/2/2 206/2/2 211/2/2
f 204/2/2 205/2/2 211/2/2
f 211/2/2 206/2/2 212/2/2
f 208/2/2 209/2/2 213/2/2
f 207/2/2 208/2/2 213/2/2
f 213/2/2 209/2/2 214/2/2
f 212/2/2 213/2/2 215/2/2
f 215/2/2 213/2/2 216/2/2
f 217/2/2 218/2/2 221/2/2
f 221/2/2 218/2/2 222/2/2
f 219/2/2 220/2/2 223/2/2
f 223/2/2 220/2/2 224/2/2
f 225/2/2 226/2/2 229/2/2
f 229/2/2 226/2/2 230/2/2
f 227/2/2 228/2/2 231/2/2
f 231/2/2 228/2/2 232/2/2
f 233/2/2 234/2/2 236/2/2
f 236/2/2 234/2/2 237/2/2
f 235/2/2 236/2/2 239/2/2
f 239/2/2 236/2/2 240/2/2
f 237/2/2 238/2/2 241/2/2
f 241/2/2 238/2/2 242/2/2
f 240/2/2 241/2/2 243/2/2
f 243/2/2 241/2/2 244/2/2
f 245/2/2 246/2/2 247/2/2
f 247/2/2 246/2/2 248/2/2
f 251/1/3 250/1/3 249/1/3
f 252/1/3 250/1/3 251/1/3
f 255/2/3 254/2/3 253/2/3
f 256/2/3 254/2/3 255/2/3
f 260/1/3 258/1/3 257/1/3
f 261/1/3 258/1/3 260/1/3
f 263/1/3 260/1/3 259/1/3
f 264/1/3 260/1/3 263/1/3
f 265/1/3 262/1/3 261/1/3
f 266/1/3 262/1/3 265/1/3
f 267/1/3 265/1/3 264/1/3
f 268/1/3 265/1/3 267/1/3
f 272/2/3 270/2/3 269/2/3
f 273/2/3 270/2/3 272/2/3
f 275/2/3 272/2/3 271/2/3
f 276/2/3 272/2/3 275/2/3
f 277/2/3 274/2/3 273/2/3
f 278/2/3 274/2/3 277/2/3
f 282/1/3 280/1/3 279/1/3
f 283/1/3 280/1/3 282/1/3
f 286/1/3 282/1/3 281/1/3
f 287/1/3 282/1/3 286/1/3
f 288/1/3 284/1/3 283/1/3
f 289/1/3 284/1/3 288/1/3
f 291/1/3 286/1/3 285/1/3
f 292/1/3 286/1/3 291/1/3
f 295/1/3 290/1/3 289/1/3
f 296/1/3 290/1/3 295/1/3
f 297/1/3 293/1/3 292/1/3
f 298/1/3 293/1/3 297/1/3
f 299/1/3 295/1/3 294/1/3
f 300/1/3 295/1/3 299/1/3
f 301/1/3 299/1/3 298/1/3
f 302/1/3 299/1/3 301/1/3
f 307/2/3 304/2/3 303/2/3
f 308/2/3 304/2/3 307/2/3
f 309/2/3 306/2/3 305/2/3
f 310/2/3 306/2/3 309/2/3
f 313/2/3 312/2/3 311/2/3
f 314/2/3 312/2/3 313/2/3
f 315/2/3 312/2/3 314/2/3
f 316/2/3 312/2/3 315/2/3
f 317/2/3 315/2/3 314/2/3
f 318/2/3 315/2/3 317/2/3
f 321/1/3 320/1/3 319/1/3
f 322/1/3 320/1/3 321/1/3
f 327/1/3 324/1/3 323/1/3
f 328/1/3 324/1/3 327/1/3
f 329/1/3 326/1/3 325/1/3
f 330/1/3 326/1/3 329/1/3
f 333/2/3 332/2/3 331/2/3
f 334/2/3 332/2/3 333/2/3
f 339/2/3 336/2/3 335/2/3
f 340/2/3 336/2/3 339/2/3
f 341/2/3 338/2/3 337/2/3
f 342/2/3 338/2/3 341/2/3
f 343/2/3 341/2/3 340/2/3
f 344/2/3 341/2/3 343/2/3
f 347/1/3 346/1/3 345/1/3
f 348/1/3 346/1/3 347/1/3
f 353/2/3 350/2/3 349/2/3
f 354/2/3 350/2/3 353/2/3
f 355/2/3 352/2/3 351/2/3
f 356/2/3 352/2/3 355/2/3
f 359/1/3 358/1/3 357/1/3
f 360/1/3 358/1/3 359/1/3
f 363/2/3 362/2/3 361/2/3
f 364/2/3 362/2/3 363/2/3
f 367/2/3 366/2/3 365/2/3
f 368/2/3 366/2/3 367/2/3
f 371/2/3 370/2/3 369/2/3
f 372/2/3 370/2/3 371/2/3
f 373/2/4 374/2/4 375/2/4
f 375/2/4 374/2/4 376/2/4
f 377/1/4 378/1/4 379/1/4
f 379/1/4 378/1/4 380/1/4
f 381/2/4 382/2/4 383/2/4
f 383/2/4 382/2/4 384/2/4
f 385/2/4 386/2/4 387/2/4
f 387/2/4 386/2/4 388/2/4
f 389/1/4 390/1/4 391/1/4
f 391/1/4 390/1/4 392/1/4
f 393/2/4 394/2/4 397/2/4
f 397/2/4 394/2/4 398/2/4
f 395/2/4 396/2/4 399/2/4
f 399/2/4 396/2/4 400/2/4
f 401/1/4 402/1/4 403/1/4
f 403/1/4 402/1/4 404/1/4
f 405/1/4 406/1/4 409/1/4
f 409/1/4 406/1/4 410/1/4
f 407/1/4 408/1/4 411/1/4
f 411/1/4 408/1/4 412/1/4
f 413/2/4 414/2/4 415/2/4
f 415/2/4 414/2/4 416/2/4
f 417/2/4 418/2/4 421/2/4
f 421/2/4 418/2/4 422/2/4
f 419/2/4 420/2/4 423/2/4
f 423/2/4 420/2/4 424/2/4
f 422/2/4 423/2/4 425/2/4
f 425/2/4 423/2/4 426/2/4
f 427/1/4 428/1/4 430/1/4
f 430/1/4 428/1/4 431/1/4
f 429/1/4 430/1/4 434/1/4
f 434/1/4 430/1/4 435/1/4
f 431/1/4 432/1/4 436/1/4
f 436/1/4 432/1/4 437/1/4
f 433/1/4 434/1/4 439/1/4
f 439/1/4 434/1/4 440/1/4
f 437/1/4 438/1/4 443/1/4
f 443/1/4 438/1/4 444/1/4
f 440/1/4 441/1/4 445/1/4
f 445/1/4 441/1/4 446/1/4
f 442/1/4 443/1/4 447/1/4
f 447/1/4 443/1/4 448/1/4
f 446/1/4 447/1/4 449/1/4
f 449/1/4 447/1/4 450/1/4
f 451/2/4 452/2/4 455/2/4
f 455/2/4 452/2/4 456/2/4
f 453/2/4 454/2/4 457/2/4
f 457/2/4 454/2/4 458/2/4
f 459/2/4 460/2/4 461/2/4
f 461/2/4 460/2/4 462/2/4
f 462/2/4 460/2/4 463/2/4
f 463/2/4 460/2/4 464/2/4
f 462/2/4 463/2/4 465/2/4
f 465/2/4 463/2/4 466/2/4
f 467/1/4 468/1/4 470/1/4
f 470/1/4 468/1/4 471/1/4
f 469/1/4 470/1/4 473/1/4
f 473/1/4 470/1/4 474/1/4
f 471/1/4 472/1/4 475/1/4
f 475/1/4 472/1/4 476/1/4
f 474/1/4 475/1/4 477/1/4
f 477/1/4 475/1/4 478/1/4
f 479/2/4 480/2/4 482/2/4
f 482/2/4 480/2/4 483/2/4
f 481/2/4 482/2/4 485/2/4
f 485/2/4 482/2/4 486/2/4
f 483/2/4 484/2/4 487/2/4
f 487/2/4 484/2/4 488/2/4
f 489/1/4 490/1/4 491/1/4
f 491/1/4 490/1/4 492/1/4
f 493/2/4 494/2/4 495/2/4
f 495/2/4 494/2/4 496/2/4
f 499/1/5 498/1/5 497/1/5
f 500/1/5 498/1/5 499/1/5
f 506/2/5 502/2/5 501/2/5
f 507/1/5 504/1/5 503/1/5
f 508/1/5 504/1/5 507/1/5
f 509/1/5 507/1/5 503/1/5
f 510/1/5 504/1/5 508/1/5
f 511/1/5 509/1/5 503/1/5
f 511/1/5 510/1/5 509/1/5
f 512/1/5 504/1/5 510/1/5
f 512/1/5 510/1/5 511/1/5
f 513/2/5 506/2/5 505/2/5
f 514/2/5 502/2/5 506/2/5
f 514/2/5 506/2/5 513/2/5
f 515/2/5 502/2/5 514/2/5
f 516/2/5 502/2/5 515/2/5
f 522/2/5 518/2/5 517/2/5
f 523/2/5 518/2/5 522/2/5
f 525/1/5 520/1/5 519/1/5
f 526/1/5 520/1/5 525/1/5
f 528/2/5 522/2/5 521/2/5
f 529/2/5 522/2/5 528/2/5
f 532/2/5 531/2/5 530/2/5
f 534/2/5 532/2/5 530/2/5
f 534/2/5 533/2/5 532/2/5
f 535/2/5 533/2/5 534/2/5
f 536/1/5 525/1/5 524/1/5
f 537/1/5 525/1/5 536/1/5
f 538/1/5 527/1/5 526/1/5
f 539/1/5 527/1/5 538/1/5
f 542/2/5 534/2/5 530/2/5
f 543/2/5 534/2/5 542/2/5
f 544/1/5 538/1/5 537/1/5
f 545/1/5 538/1/5 544/1/5
f 546/2/5 541/2/5 540/2/5
f 547/2/5 541/2/5 546/2/5
f 549/2/5 548/2/5 547/2/5
f 550/2/5 548/2/5 549/2/5
f 554/1/5 552/1/5 551/1/5
f 555/1/5 552/1/5 554/1/5
f 558/1/5 554/1/5 553/1/5
f 559/1/5 554/1/5 558/1/5
f 560/1/5 556/1/5 555/1/5
f 561/1/5 556/1/5 560/1/5
f 567/2/5 564/2/5 563/2/5
f 568/2/5 564/2/5 567/2/5
f 570/1/5 566/1/5 565/1/5
f 571/1/5 566/1/5 570/1/5
f 573/2/5 569/2/5 568/2/5
f 574/2/5 569/2/5 573/2/5
f 575/1/5 558/1/5 557/1/5
f 576/1/5 558/1/5 575/1/5
f 579/1/5 562/1/5 561/1/5
f 580/1/5 562/1/5 579/1/5
f 581/2/5 573/2/5 572/2/5
f 582/2/5 573/2/5 581/2/5
f 583/1/5 577/1/5 576/1/5
f 584/1/5 577/1/5 583/1/5
f 585/1/5 579/1/5 578/1/5
f 586/1/5 579/1/5 585/1/5
f 587/1/5 585/1/5 584/1/5
f 588/1/5 585/1/5 587/1/5
f 591/2/5 590/2/5 589/2/5
f 592/2/5 590/2/5 591/2/5
f 598/2/5 594/2/5 593/2/5
f 599/2/5 594/2/5 598/2/5
f 601/2/5 598/2/5 597/2/5
f 601/2/5 600/2/5 599/2/5
f 601/2/5 599/2/5 598/2/5
f 602/2/5 600/2/5 601/2/5
f 603/2/5 601/2/5 597/2/5
f 605/1/5 596/1/5 595/1/5
f 606/1/5 596/1/5 605/1/5
f 607/2/5 604/2/5 603/2/5
f 607/2/5 603/2/5 597/2/5
f 608/2/5 604/2/5 607/2/5
f 609/2/5 604/2/5 608/2/5
f 610/2/5 604/2/5 609/2/5
f 611/2/5 609/2/5 608/2/5
f 612/2/5 609/2/5 611/2/5
f 615/2/5 614/2/5 613/2/5
f 616/2/5 614/2/5 615/2/5
f 617/1/6 618/1/6 619/1/6
f 619/1/6 618/1/6 620/1/6
f 621/2/6 622/2/6 626/2/6
f 626/2/6 622/2/6 627/2/6
f 623/1/6 624/1/6 629/1/6
f 629/1/6 624/1/6 630/1/6
f 623/1/6 629/1/6 631/1/6
f 630/1/6 624/1/6 632/1/6
f 623/1/6 631/1/6 633/1/6
f 631/1/6 632/1/6 633/1/6
f 632/1/6 624/1/6 634/1/6
f 633/1/6 632/1/6 634/1/6
f 627/2/6 628/2/6 635/2/6
f 625/2/6 626/2/6 635/2/6
f 626/2/6 627/2/6 635/2/6
f 635/2/6 628/2/6 636/2/6
f 636/2/6 628/2/6 637/2/6
f 637/2/6 628/2/6 638/2/6
f 636/2/6 637/2/6 639/2/6
f 639/2/6 637/2/6 640/2/6
f 641/2/6 642/2/6 643/2/6
f 643/2/6 642/2/6 644/2/6
f 645/1/6 646/1/6 648/1/6
f 648/1/6 646/1/6 649/1/6
f 647/1/6 648/1/6 652/1/6
f 652/1/6 648/1/6 653/1/6
f 649/1/6 650/1/6 654/1/6
f 654/1/6 650/1/6 655/1/6
f 657/2/6 658/2/6 661/2/6
f 661/2/6 658/2/6 662/2/6
f 659/1/6 660/1/6 664/1/6
f 664/1/6 660/1/6 665/1/6
f 662/2/6 663/2/6 667/2/6
f 667/2/6 663/2/6 668/2/6
f 651/1/6 652/1/6 669/1/6
f 669/1/6 652/1/6 670/1/6
f 655/1/6 656/1/6 673/1/6
f 673/1/6 656/1/6 674/1/6
f 666/2/6 667/2/6 675/2/6
f 675/2/6 667/2/6 676/2/6
f 670/1/6 671/1/6 677/1/6
f 677/1/6 671/1/6 678/1/6
f 672/1/6 673/1/6 679/1/6
f 679/1/6 673/1/6 680/1/6
f 678/1/6 679/1/6 681/1/6
f 681/1/6 679/1/6 682/1/6
f 683/2/6 684/2/6 688/2/6
f 688/2/6 684/2/6 689/2/6
f 685/1/6 686/1/6 691/1/6
f 691/1/6 686/1/6 692/1/6
f 687/2/6 688/2/6 694/2/6
f 694/2/6 688/2/6 695/2/6
f 696/2/6 697/2/6 698/2/6
f 698/2/6 697/2/6 699/2/6
f 698/2/6 699/2/6 701/2/6
f 699/2/6 700/2/6 701/2/6
f 701/2/6 700/2/6 702/2/6
f 702/2/6 700/2/6 703/2/6
f 690/1/6 691/1/6 704/1/6
f 704/1/6 691/1/6 705/1/6
f 692/1/6 693/1/6 706/1/6
f 706/1/6 693/1/6 707/1/6
f 701/2/6 702/2/6 710/2/6
f 710/2/6 702/2/6 711/2/6
f 705/1/6 706/1/6 712/1/6
f 712/1/6 706/1/6 713/1/6
f 708/2/6 709/2/6 714/2/6
f 714/2/6 709/2/6 715/2/6
f 715/2/6 716/2/6 717/2/6
f 717/2/6 716/2/6 718/2/6
f 719/2/6 720/2/6 724/2/6
f 721/1/6 722/1/6 725/1/6
f 725/1/6 722/1/6 726/1/6
f 723/2/6 724/2/6 727/2/6
f 724/2/6 720/2/6 727/2/6
f 727/2/6 720/2/6 728/2/6
f 721/1/6 725/1/6 729/1/6
f 726/1/6 722/1/6 730/1/6
f 723/2/6 727/2/6 731/2/6
f 721/1/6 729/1/6 733/1/6
f 729/1/6 730/1/6 733/1/6
f 730/1/6 722/1/6 734/1/6
f 733/1/6 730/1/6 734/1/6
f 731/2/6 732/2/6 735/2/6
f 723/2/6 731/2/6 735/2/6
f 735/2/6 732/2/6 736/2/6
f 736/2/6 732/2/6 737/2/6
f 737/2/6 732/2/6 738/2/6
f 739/1/6 740/1/6 743/1/6
f 743/1/6 740/1/6 744/1/6
f 741/2/6 742/2/6 745/2/6
f 745/2/6 742/2/6 746/2/6
