# MagicaVoxel @ Ephtracy

# group
o 

# material
mtllib puska3-1.mtl
usemtl palette

# normals
vn -1 0 0
vn 1 0 0
vn 0 0 1
vn 0 0 -1
vn 0 -1 0
vn 0 1 0

# texcoords
vt 0.884766 0.5
vt 0.916016 0.5
vt 0.947266 0.5
vt 0.978516 0.5

# verts
v -4.1 1.1 -2.2
v -4.1 1.1 -2.3
v -4.1 1.2 -2.2
v -4.1 1.2 -2.3
v -4 1 -2.2
v -4 1 -2.3
v -4 1.1 -2.1
v -4 1.1 -2.2
v -4 1.1 -2.3
v -4 1.1 -2.4
v -4 1.2 -2.1
v -4 1.2 -2.2
v -4 1.2 -2.3
v -4 1.2 -2.4
v -4 1.3 -2.2
v -4 1.3 -2.3
v -3.2 1.1 -2.2
v -3.2 1.1 -2.3
v -3.2 1.2 -2.2
v -3.2 1.2 -2.3
v -3.9 1 -2.2
v -3.9 1 -2.3
v -3.9 1.1 -2.1
v -3.9 1.1 -2.2
v -3.9 1.1 -2.3
v -3.9 1.1 -2.4
v -3.9 1.2 -2.1
v -3.9 1.2 -2.2
v -3.9 1.2 -2.3
v -3.9 1.2 -2.4
v -3.9 1.3 -2.2
v -3.9 1.3 -2.3
v -3.8 1.1 -2.2
v -3.8 1.1 -2.3
v -3.8 1.2 -2.2
v -3.8 1.2 -2.3
v -1.4 1.1 -2.2
v -1.4 1.1 -2.3
v -1.4 1.2 -2.2
v -1.4 1.2 -2.3
v -4 1.1 -2.1
v -4 1.2 -2.1
v -3.9 1.1 -2.1
v -3.9 1.2 -2.1
v -4.1 1.1 -2.2
v -4.1 1.2 -2.2
v -4 1 -2.2
v -4 1.1 -2.2
v -4 1.2 -2.2
v -4 1.3 -2.2
v -3.9 1 -2.2
v -3.9 1.1 -2.2
v -3.9 1.2 -2.2
v -3.9 1.3 -2.2
v -3.8 1.1 -2.2
v -3.8 1.2 -2.2
v -3.2 1.1 -2.2
v -3.2 1.2 -2.2
v -3.1 1.1 -2.2
v -3.1 1.2 -2.2
v -3 1.1 -2.2
v -3 1.2 -2.2
v -2.9 1.1 -2.2
v -2.9 1.2 -2.2
v -2.8 1.1 -2.2
v -2.8 1.2 -2.2
v -2.7 1.1 -2.2
v -2.7 1.2 -2.2
v -2.6 1.1 -2.2
v -2.6 1.2 -2.2
v -2.5 1.1 -2.2
v -2.5 1.2 -2.2
v -2.4 1.1 -2.2
v -2.4 1.2 -2.2
v -2.3 1.1 -2.2
v -2.3 1.2 -2.2
v -2.2 1.1 -2.2
v -2.2 1.2 -2.2
v -2.1 1.1 -2.2
v -2.1 1.2 -2.2
v -2 1.1 -2.2
v -2 1.2 -2.2
v -1.9 1.1 -2.2
v -1.9 1.2 -2.2
v -1.8 1.1 -2.2
v -1.8 1.2 -2.2
v -1.7 1.1 -2.2
v -1.7 1.2 -2.2
v -1.6 1.1 -2.2
v -1.6 1.2 -2.2
v -1.5 1.1 -2.2
v -1.5 1.2 -2.2
v -1.4 1.1 -2.2
v -1.4 1.2 -2.2
v -4.1 1.1 -2.3
v -4.1 1.2 -2.3
v -4 1 -2.3
v -4 1.1 -2.3
v -4 1.2 -2.3
v -4 1.3 -2.3
v -3.9 1 -2.3
v -3.9 1.1 -2.3
v -3.9 1.2 -2.3
v -3.9 1.3 -2.3
v -3.8 1.1 -2.3
v -3.8 1.2 -2.3
v -3.2 1.1 -2.3
v -3.2 1.2 -2.3
v -3.1 1.1 -2.3
v -3.1 1.2 -2.3
v -3 1.1 -2.3
v -3 1.2 -2.3
v -2.9 1.1 -2.3
v -2.9 1.2 -2.3
v -2.8 1.1 -2.3
v -2.8 1.2 -2.3
v -2.7 1.1 -2.3
v -2.7 1.2 -2.3
v -2.6 1.1 -2.3
v -2.6 1.2 -2.3
v -2.5 1.1 -2.3
v -2.5 1.2 -2.3
v -2.4 1.1 -2.3
v -2.4 1.2 -2.3
v -2.3 1.1 -2.3
v -2.3 1.2 -2.3
v -2.2 1.1 -2.3
v -2.2 1.2 -2.3
v -2.1 1.1 -2.3
v -2.1 1.2 -2.3
v -2 1.1 -2.3
v -2 1.2 -2.3
v -1.9 1.1 -2.3
v -1.9 1.2 -2.3
v -1.8 1.1 -2.3
v -1.8 1.2 -2.3
v -1.7 1.1 -2.3
v -1.7 1.2 -2.3
v -1.6 1.1 -2.3
v -1.6 1.2 -2.3
v -1.5 1.1 -2.3
v -1.5 1.2 -2.3
v -1.4 1.1 -2.3
v -1.4 1.2 -2.3
v -4 1.1 -2.4
v -4 1.2 -2.4
v -3.9 1.1 -2.4
v -3.9 1.2 -2.4
v -4 1 -2.2
v -3.9 1 -2.2
v -4 1 -2.3
v -3.9 1 -2.3
v -4 1.1 -2.1
v -3.9 1.1 -2.1
v -4.1 1.1 -2.2
v -4 1.1 -2.2
v -3.9 1.1 -2.2
v -3.8 1.1 -2.2
v -3.2 1.1 -2.2
v -3.1 1.1 -2.2
v -3 1.1 -2.2
v -2.9 1.1 -2.2
v -2.8 1.1 -2.2
v -2.7 1.1 -2.2
v -2.6 1.1 -2.2
v -2.5 1.1 -2.2
v -2.4 1.1 -2.2
v -2.3 1.1 -2.2
v -2.2 1.1 -2.2
v -2.1 1.1 -2.2
v -2 1.1 -2.2
v -1.9 1.1 -2.2
v -1.8 1.1 -2.2
v -1.7 1.1 -2.2
v -1.6 1.1 -2.2
v -1.5 1.1 -2.2
v -1.4 1.1 -2.2
v -4.1 1.1 -2.3
v -4 1.1 -2.3
v -3.9 1.1 -2.3
v -3.8 1.1 -2.3
v -3.2 1.1 -2.3
v -3.1 1.1 -2.3
v -3 1.1 -2.3
v -2.9 1.1 -2.3
v -2.8 1.1 -2.3
v -2.7 1.1 -2.3
v -2.6 1.1 -2.3
v -2.5 1.1 -2.3
v -2.4 1.1 -2.3
v -2.3 1.1 -2.3
v -2.2 1.1 -2.3
v -2.1 1.1 -2.3
v -2 1.1 -2.3
v -1.9 1.1 -2.3
v -1.8 1.1 -2.3
v -1.7 1.1 -2.3
v -1.6 1.1 -2.3
v -1.5 1.1 -2.3
v -1.4 1.1 -2.3
v -4 1.1 -2.4
v -3.9 1.1 -2.4
v -4 1.2 -2.1
v -3.9 1.2 -2.1
v -4.1 1.2 -2.2
v -4 1.2 -2.2
v -3.9 1.2 -2.2
v -3.8 1.2 -2.2
v -3.2 1.2 -2.2
v -3.1 1.2 -2.2
v -3 1.2 -2.2
v -2.9 1.2 -2.2
v -2.8 1.2 -2.2
v -2.7 1.2 -2.2
v -2.6 1.2 -2.2
v -2.5 1.2 -2.2
v -2.4 1.2 -2.2
v -2.3 1.2 -2.2
v -2.2 1.2 -2.2
v -2.1 1.2 -2.2
v -2 1.2 -2.2
v -1.9 1.2 -2.2
v -1.8 1.2 -2.2
v -1.7 1.2 -2.2
v -1.6 1.2 -2.2
v -1.5 1.2 -2.2
v -1.4 1.2 -2.2
v -4.1 1.2 -2.3
v -4 1.2 -2.3
v -3.9 1.2 -2.3
v -3.8 1.2 -2.3
v -3.2 1.2 -2.3
v -3.1 1.2 -2.3
v -3 1.2 -2.3
v -2.9 1.2 -2.3
v -2.8 1.2 -2.3
v -2.7 1.2 -2.3
v -2.6 1.2 -2.3
v -2.5 1.2 -2.3
v -2.4 1.2 -2.3
v -2.3 1.2 -2.3
v -2.2 1.2 -2.3
v -2.1 1.2 -2.3
v -2 1.2 -2.3
v -1.9 1.2 -2.3
v -1.8 1.2 -2.3
v -1.7 1.2 -2.3
v -1.6 1.2 -2.3
v -1.5 1.2 -2.3
v -1.4 1.2 -2.3
v -4 1.2 -2.4
v -3.9 1.2 -2.4
v -4 1.3 -2.2
v -3.9 1.3 -2.2
v -4 1.3 -2.3
v -3.9 1.3 -2.3

# faces
f 3/1/1 2/1/1 1/1/1
f 4/1/1 2/1/1 3/1/1
f 8/1/1 6/1/1 5/1/1
f 9/1/1 6/1/1 8/1/1
f 11/1/1 8/1/1 7/1/1
f 12/1/1 8/1/1 11/1/1
f 13/1/1 10/1/1 9/1/1
f 14/1/1 10/1/1 13/1/1
f 15/1/1 13/1/1 12/1/1
f 16/1/1 13/1/1 15/1/1
f 19/2/1 18/2/1 17/2/1
f 20/2/1 18/2/1 19/2/1
f 21/1/2 22/1/2 24/1/2
f 24/1/2 22/1/2 25/1/2
f 23/1/2 24/1/2 27/1/2
f 27/1/2 24/1/2 28/1/2
f 25/1/2 26/1/2 29/1/2
f 29/1/2 26/1/2 30/1/2
f 28/1/2 29/1/2 31/1/2
f 31/1/2 29/1/2 32/1/2
f 33/1/2 34/1/2 35/1/2
f 35/1/2 34/1/2 36/1/2
f 37/3/2 38/3/2 39/3/2
f 39/3/2 38/3/2 40/3/2
f 43/1/3 42/1/3 41/1/3
f 44/1/3 42/1/3 43/1/3
f 48/1/3 46/1/3 45/1/3
f 49/1/3 46/1/3 48/1/3
f 51/1/3 48/1/3 47/1/3
f 52/1/3 48/1/3 51/1/3
f 53/1/3 50/1/3 49/1/3
f 54/1/3 50/1/3 53/1/3
f 55/1/3 53/1/3 52/1/3
f 56/1/3 53/1/3 55/1/3
f 59/2/3 58/2/3 57/2/3
f 60/2/3 58/2/3 59/2/3
f 61/4/3 60/4/3 59/4/3
f 62/4/3 60/4/3 61/4/3
f 63/3/3 62/3/3 61/3/3
f 64/3/3 62/3/3 63/3/3
f 65/2/3 64/2/3 63/2/3
f 66/2/3 64/2/3 65/2/3
f 67/4/3 66/4/3 65/4/3
f 68/4/3 66/4/3 67/4/3
f 69/3/3 68/3/3 67/3/3
f 70/3/3 68/3/3 69/3/3
f 71/2/3 70/2/3 69/2/3
f 72/2/3 70/2/3 71/2/3
f 73/4/3 72/4/3 71/4/3
f 74/4/3 72/4/3 73/4/3
f 75/3/3 74/3/3 73/3/3
f 76/3/3 74/3/3 75/3/3
f 77/2/3 76/2/3 75/2/3
f 78/2/3 76/2/3 77/2/3
f 79/4/3 78/4/3 77/4/3
f 80/4/3 78/4/3 79/4/3
f 81/3/3 80/3/3 79/3/3
f 82/3/3 80/3/3 81/3/3
f 83/2/3 82/2/3 81/2/3
f 84/2/3 82/2/3 83/2/3
f 85/4/3 84/4/3 83/4/3
f 86/4/3 84/4/3 85/4/3
f 87/3/3 86/3/3 85/3/3
f 88/3/3 86/3/3 87/3/3
f 89/2/3 88/2/3 87/2/3
f 90/2/3 88/2/3 89/2/3
f 91/4/3 90/4/3 89/4/3
f 92/4/3 90/4/3 91/4/3
f 93/3/3 92/3/3 91/3/3
f 94/3/3 92/3/3 93/3/3
f 95/1/4 96/1/4 98/1/4
f 98/1/4 96/1/4 99/1/4
f 97/1/4 98/1/4 101/1/4
f 101/1/4 98/1/4 102/1/4
f 99/1/4 100/1/4 103/1/4
f 103/1/4 100/1/4 104/1/4
f 102/1/4 103/1/4 105/1/4
f 105/1/4 103/1/4 106/1/4
f 107/2/4 108/2/4 109/2/4
f 109/2/4 108/2/4 110/2/4
f 109/4/4 110/4/4 111/4/4
f 111/4/4 110/4/4 112/4/4
f 111/3/4 112/3/4 113/3/4
f 113/3/4 112/3/4 114/3/4
f 113/2/4 114/2/4 115/2/4
f 115/2/4 114/2/4 116/2/4
f 115/4/4 116/4/4 117/4/4
f 117/4/4 116/4/4 118/4/4
f 117/3/4 118/3/4 119/3/4
f 119/3/4 118/3/4 120/3/4
f 119/2/4 120/2/4 121/2/4
f 121/2/4 120/2/4 122/2/4
f 121/4/4 122/4/4 123/4/4
f 123/4/4 122/4/4 124/4/4
f 123/3/4 124/3/4 125/3/4
f 125/3/4 124/3/4 126/3/4
f 125/2/4 126/2/4 127/2/4
f 127/2/4 126/2/4 128/2/4
f 127/4/4 128/4/4 129/4/4
f 129/4/4 128/4/4 130/4/4
f 129/3/4 130/3/4 131/3/4
f 131/3/4 130/3/4 132/3/4
f 131/2/4 132/2/4 133/2/4
f 133/2/4 132/2/4 134/2/4
f 133/4/4 134/4/4 135/4/4
f 135/4/4 134/4/4 136/4/4
f 135/3/4 136/3/4 137/3/4
f 137/3/4 136/3/4 138/3/4
f 137/2/4 138/2/4 139/2/4
f 139/2/4 138/2/4 140/2/4
f 139/4/4 140/4/4 141/4/4
f 141/4/4 140/4/4 142/4/4
f 141/3/4 142/3/4 143/3/4
f 143/3/4 142/3/4 144/3/4
f 145/1/4 146/1/4 147/1/4
f 147/1/4 146/1/4 148/1/4
f 151/1/5 150/1/5 149/1/5
f 152/1/5 150/1/5 151/1/5
f 156/1/5 154/1/5 153/1/5
f 157/1/5 154/1/5 156/1/5
f 178/1/5 156/1/5 155/1/5
f 179/1/5 156/1/5 178/1/5
f 180/1/5 158/1/5 157/1/5
f 181/1/5 158/1/5 180/1/5
f 182/2/5 160/2/5 159/2/5
f 183/4/5 161/4/5 160/4/5
f 183/2/5 160/2/5 182/2/5
f 184/3/5 162/3/5 161/3/5
f 184/4/5 161/4/5 183/4/5
f 185/2/5 163/2/5 162/2/5
f 185/3/5 162/3/5 184/3/5
f 186/4/5 164/4/5 163/4/5
f 186/2/5 163/2/5 185/2/5
f 187/3/5 165/3/5 164/3/5
f 187/4/5 164/4/5 186/4/5
f 188/2/5 166/2/5 165/2/5
f 188/3/5 165/3/5 187/3/5
f 189/4/5 167/4/5 166/4/5
f 189/2/5 166/2/5 188/2/5
f 190/3/5 168/3/5 167/3/5
f 190/4/5 167/4/5 189/4/5
f 191/2/5 169/2/5 168/2/5
f 191/3/5 168/3/5 190/3/5
f 192/4/5 170/4/5 169/4/5
f 192/2/5 169/2/5 191/2/5
f 193/3/5 171/3/5 170/3/5
f 193/4/5 170/4/5 192/4/5
f 194/2/5 172/2/5 171/2/5
f 194/3/5 171/3/5 193/3/5
f 195/4/5 173/4/5 172/4/5
f 195/2/5 172/2/5 194/2/5
f 196/3/5 174/3/5 173/3/5
f 196/4/5 173/4/5 195/4/5
f 197/2/5 175/2/5 174/2/5
f 197/3/5 174/3/5 196/3/5
f 198/4/5 176/4/5 175/4/5
f 198/2/5 175/2/5 197/2/5
f 199/3/5 177/3/5 176/3/5
f 199/4/5 176/4/5 198/4/5
f 200/3/5 177/3/5 199/3/5
f 201/1/5 180/1/5 179/1/5
f 202/1/5 180/1/5 201/1/5
f 203/1/6 204/1/6 206/1/6
f 206/1/6 204/1/6 207/1/6
f 205/1/6 206/1/6 228/1/6
f 228/1/6 206/1/6 229/1/6
f 207/1/6 208/1/6 230/1/6
f 230/1/6 208/1/6 231/1/6
f 209/2/6 210/2/6 232/2/6
f 210/4/6 211/4/6 233/4/6
f 232/2/6 210/2/6 233/2/6
f 211/3/6 212/3/6 234/3/6
f 233/4/6 211/4/6 234/4/6
f 212/2/6 213/2/6 235/2/6
f 234/3/6 212/3/6 235/3/6
f 213/4/6 214/4/6 236/4/6
f 235/2/6 213/2/6 236/2/6
f 214/3/6 215/3/6 237/3/6
f 236/4/6 214/4/6 237/4/6
f 215/2/6 216/2/6 238/2/6
f 237/3/6 215/3/6 238/3/6
f 216/4/6 217/4/6 239/4/6
f 238/2/6 216/2/6 239/2/6
f 217/3/6 218/3/6 240/3/6
f 239/4/6 217/4/6 240/4/6
f 218/2/6 219/2/6 241/2/6
f 240/3/6 218/3/6 241/3/6
f 219/4/6 220/4/6 242/4/6
f 241/2/6 219/2/6 242/2/6
f 220/3/6 221/3/6 243/3/6
f 242/4/6 220/4/6 243/4/6
f 221/2/6 222/2/6 244/2/6
f 243/3/6 221/3/6 244/3/6
f 222/4/6 223/4/6 245/4/6
f 244/2/6 222/2/6 245/2/6
f 223/3/6 224/3/6 246/3/6
f 245/4/6 223/4/6 246/4/6
f 224/2/6 225/2/6 247/2/6
f 246/3/6 224/3/6 247/3/6
f 225/4/6 226/4/6 248/4/6
f 247/2/6 225/2/6 248/2/6
f 226/3/6 227/3/6 249/3/6
f 248/4/6 226/4/6 249/4/6
f 249/3/6 227/3/6 250/3/6
f 229/1/6 230/1/6 251/1/6
f 251/1/6 230/1/6 252/1/6
f 253/1/6 254/1/6 255/1/6
f 255/1/6 254/1/6 256/1/6
